<?xml version="1.0" encoding="utf-8"?>
<!-- Generator: Adobe Illustrator 16.0.3, SVG Export Plug-In . SVG Version: 6.00 Build 0)  -->
<!DOCTYPE svg PUBLIC "-//W3C//DTD SVG 1.1//EN" "http://www.w3.org/Graphics/SVG/1.1/DTD/svg11.dtd">
<svg version="1.1" id="Layer_1" xmlns="http://www.w3.org/2000/svg" xmlns:xlink="http://www.w3.org/1999/xlink" x="0px" y="0px"
	 width="400px" height="400px" viewBox="0 0 400 400" enable-background="new 0 0 400 400" xml:space="preserve">
<g>
	<path fill="#FFFFFF" d="M199.999,42.661C113.104,42.661,42.66,113.104,42.66,200s70.443,157.34,157.339,157.34
		c86.896,0,157.34-70.443,157.34-157.34S286.896,42.661,199.999,42.661z M199.999,347.716c-81.581,0-147.716-66.135-147.716-147.716
		S118.418,52.284,199.999,52.284S347.716,118.419,347.716,200S281.58,347.716,199.999,347.716z"/>
	<g>
		<path fill="#FFFFFF" d="M204.789,284.694v25.826h-9.457v-25.342c-15.198,0-28.414-3.232-39.649-9.699v-12.367
			c12.286,7.922,25.503,11.881,39.649,11.881v-72.508c-15.926-9.133-26.515-16.993-31.768-23.583
			c-5.256-6.587-7.882-14.447-7.882-23.583c0-10.992,3.556-20.571,10.67-28.736c7.112-8.163,16.772-13.175,28.979-15.035V89.48
			h9.457v21.824c12.287,0,22.795,1.74,31.525,5.215v12.488c-8.326-4.85-18.836-7.275-31.525-7.275v73.6
			c14.873,8.165,25.179,15.663,30.92,22.492c5.738,6.832,8.607,14.896,8.607,24.189c0,11.317-3.455,20.815-10.366,28.495
			S217.318,282.917,204.789,284.694z M195.332,121.976c-8.65,1.376-15.48,4.931-20.492,10.67
			c-5.013,5.741-7.518,12.813-7.518,21.219c0,7.114,1.859,13.277,5.578,18.491c3.717,5.213,11.195,11.055,22.432,17.521V121.976z
			 M204.789,208.185v66.566c9.215-1.615,16.166-5.152,20.855-10.609c4.688-5.455,7.033-12.104,7.033-19.945
			c0-7.436-1.961-13.741-5.881-18.915C222.875,220.108,215.539,214.41,204.789,208.185z"/>
	</g>
</g>
</svg>
